<?xml version="1.0" encoding="utf-8"?>
<!-- Generator: Adobe Illustrator 26.0.3, SVG Export Plug-In . SVG Version: 6.00 Build 0)  -->
<svg version="1.0" id="katman_1" xmlns="http://www.w3.org/2000/svg" xmlns:xlink="http://www.w3.org/1999/xlink" x="0px" y="0px"
	 viewBox="0 0 111.8 80.9" style="enable-background:new 0 0 111.8 80.9;" xml:space="preserve">
<style type="text/css">
	.st0{clip-path:url(#SVGID_00000100354730118247481160000005976904986819514535_);}
	.st1{fill:#00FF84;}
</style>
<g>
	<defs>
		<rect id="SVGID_1_" x="15" y="20.2" width="81.8" height="40.5"/>
	</defs>
	<clipPath id="SVGID_00000075863016450098334170000000516742595275382680_">
		<use xlink:href="#SVGID_1_"  style="overflow:visible;"/>
	</clipPath>
	<g transform="scale(.26458)" style="clip-path:url(#SVGID_00000075863016450098334170000000516742595275382680_);">
		<path d="M146.5,158.1l-16.4-23.5v23.5h-17v-54h17v22.8l16.9-22.7h20.1l-20.7,25.5l21,28.4H146.5z"/>
		<path class="st1" d="M356,229.1c5.5,0,10-4.4,10-9.8c0-5.4-4.5-9.8-10-9.8c-5.5,0-10,4.4-10,9.8C346,224.7,350.5,229.1,356,229.1z
			 M182.7,95.9c5.5,0,9.9-4.4,9.9-9.8c0-5.4-4.5-9.8-9.9-9.8c-5.5,0-9.9,4.4-9.9,9.8C172.8,91.5,177.2,95.9,182.7,95.9z"/>
		<path d="M191.2,104.1h-17v54h17V104.1z M173.9,201.1c0-16.1,9.9-28.4,25.6-28.4c7.8,0,14,3.7,16.9,9.2v-7.7h17V228h-17v-7.6
			c-2.9,5.4-9.6,9.1-17.1,9.1C183.2,229.4,173.9,217.3,173.9,201.1z M217,201.1c0-7.7-4.4-14.1-12.9-14.1c-7.9,0-12.9,5.9-12.9,14.1
			c0,8.1,4.9,14.2,12.9,14.2C212.7,215.2,217,208.9,217,201.1z M243.3,174.1h17.1v11.3c1.9-8,8.3-12.2,14.9-12.2
			c2,0,3.1,0.1,4.5,0.4l-0.1,15.8c-2-0.2-2.9-0.3-5-0.3c-9.3,0-14.2,6-14.2,18V228h-17.1V174.1z M283.2,201.1
			c0-17.6,11.5-28.4,29-28.4c16.8,0,28.2,10.4,28.2,25.6c0,2.8-0.1,4.5-0.5,7.5h-39.8c0.3,7,5,10.8,12.6,10.8c5.2,0,8.6-1.4,10-4.8
			h16.8c-1.7,10.6-12.5,17.6-26.8,17.6C294.5,229.4,283.2,219,283.2,201.1z M323.6,195.1c-0.1-7.1-4.1-10.9-11.4-10.9
			c-7.4,0-11.8,4.4-12,10.9H323.6z M218.2,142.1v-38h-17.1v54h41.5v-16H218.2z M268.9,142.1v-38h-17.1v54h41.5v-16H268.9z
			 M150.3,174.1v19.4h-20.5v-19.4h-16.7v54h16.7V209h20.5v19.1h16.8v-54H150.3z M92,196l-10.4-2.9c-3.5-1.1-4.8-2.6-4.8-4.8
			c0-2.4,1.9-3.8,4.3-4.1c3.5-0.4,6.3,1.1,6.3,4.9v0.2h18v-0.2h0c0-10.8-9.1-16.7-24.3-16.7c-13.8,0-23,6.7-23,16.9
			c0,8.2,4.9,13.7,13.5,15.8l10.8,2.7c3.2,1,4.5,2.6,4.5,5c0,2.7-2.7,4.2-5.5,4.3c-4,0.2-6.9-2-7.1-5.4H56.7
			c0.3,10.3,10.3,17.5,25.4,17.5c14.3,0,23.5-6.6,23.5-17.8C105.6,203.4,100.5,198.2,92,196z M92,126.1l-10.4-2.9
			c-3.5-1-4.8-2.6-4.8-4.8c0-2.4,1.9-3.8,4.3-4.1c3.5-0.4,6.3,1.1,6.3,4.9v0.2h18v-0.2h0c0-10.8-9.1-16.7-24.3-16.7
			c-13.8,0-23,6.7-23,16.9c0,8.2,4.9,13.7,13.5,15.8l10.8,2.7c3.2,1,4.5,2.6,4.5,5c0,2.7-2.7,4.2-5.5,4.3c-4,0.2-6.9-2-7.1-5.4H56.7
			c0.3,10.3,10.3,17.5,25.4,17.5c14.3,0,23.5-6.6,23.5-17.8C105.6,133.5,100.5,128.4,92,126.1z"/>
	</g>
</g>
</svg>
